Coordinates
version=1
nRows=11
nColumns=63
inDegrees=yes

Units are S.I. units (second, meters, Newtons, ...)
If the header above contains a line with 'inDegrees', this indicates whether rotational values are in degrees (yes) or radians (no).

endheader
time	pelvis_tilt	pelvis_list	pelvis_rotation	pelvis_tx	pelvis_ty	pelvis_tz	hip_flexion_r	hip_adduction_r	hip_rotation_r	knee_angle_r	knee_angle_r_beta	ankle_angle_r	subtalar_angle_r	mtp_angle_r	hip_flexion_l	hip_adduction_l	hip_rotation_l	knee_angle_l	knee_angle_l_beta	ankle_angle_l	subtalar_angle_l	mtp_angle_l	L5_S1_Flex_Ext	L5_S1_Lat_Bending	L5_S1_axial_rotation	L4_L5_Flex_Ext	L4_L5_Lat_Bending	L4_L5_axial_rotation	L3_L4_Flex_Ext	L3_L4_Lat_Bending	L3_L4_axial_rotation	L2_L3_Flex_Ext	L2_L3_Lat_Bending	L2_L3_axial_rotation	L1_L2_Flex_Ext	L1_L2_Lat_Bending	L1_L2_axial_rotation	L1_T12_Flex_Ext	L1_T12_Lat_Bending	L1_T12_axial_rotation	Abs_r3	Abs_r2	Abs_r1	Abs_t1	Abs_t2	neck_flexion	neck_bending	neck_rotation	arm_flex_r	arm_add_r	arm_rot_r	elbow_flex_r	pro_sup_r	wrist_flex_r	wrist_dev_r	arm_flex_l	arm_add_l	arm_rot_l	elbow_flex_l	pro_sup_l	wrist_flex_l	wrist_dev_l
3.146341	-3.513640	-5.047565	98.627973	0.421814	0.769368	1.050898	4.850849	-5.196076	-20.165143	10.421466	0.181889	22.584096	16.181266	0.000000	5.375416	2.769808	-10.530219	7.809674	0.136305	23.765437	16.712066	0.000000	0.317592	-0.402395	1.660461	0.589799	-0.535185	1.764240	0.521771	-0.978383	1.764240	0.362975	-0.978383	1.452903	0.294916	-0.820564	1.349125	0.181472	-0.623310	1.245346	2.268525	-4.551972	9.234987	0.000000	0.000000	28.700891	-9.824592	-12.449838	-7.510407	-12.068965	13.618994	41.003261	84.324428	-10.166210	0.180518	14.383844	-11.959457	114.034053	15.560055	30.596673	-4.939313	-2.688039
3.170732	-3.513978	-4.920888	99.025093	0.420311	0.770281	1.050518	4.828153	-5.283852	-20.642643	10.621645	0.185383	22.576021	16.117499	0.000000	5.150388	2.815115	-9.955235	7.696742	0.134333	23.446521	16.666867	0.000000	0.321657	-0.391500	1.591458	0.597350	-0.520695	1.690925	0.528451	-0.951892	1.690925	0.367622	-0.951892	1.392526	0.298691	-0.798346	1.293060	0.183795	-0.606433	1.193594	2.297565	-4.428723	8.851214	0.000000	0.000000	28.617923	-8.997531	-13.530557	-6.459049	-12.227753	14.610998	41.973414	85.460505	-11.109075	0.670490	15.148249	-12.000231	108.481950	17.183051	34.230415	-5.769671	-1.882104
3.195122	-3.426864	-4.781873	99.481286	0.418888	0.771155	1.050484	4.832770	-5.285153	-21.139946	10.869482	0.189708	22.508000	15.921915	0.000000	4.953774	2.765419	-9.331956	7.607643	0.132778	23.096606	16.587059	0.000000	0.319966	-0.371245	1.513007	0.594208	-0.493756	1.607570	0.525672	-0.902645	1.607570	0.365689	-0.902645	1.323881	0.297120	-0.757043	1.229318	0.182828	-0.575059	1.134755	2.285483	-4.199598	8.414890	0.000000	0.000000	28.478097	-8.191104	-14.540013	-5.308205	-12.303149	15.499774	43.113908	86.372713	-11.760181	1.445028	15.944935	-11.691672	103.341363	18.560507	38.578310	-6.791568	-1.137447
3.219512	-3.276666	-4.620530	99.963257	0.417560	0.771985	1.050729	4.843023	-5.220451	-21.615549	11.158059	0.194745	22.381107	15.577711	0.000000	4.765036	2.643669	-8.675247	7.533983	0.131493	22.748034	16.461857	0.000000	0.310529	-0.343415	1.429959	0.576683	-0.456743	1.519332	0.510167	-0.834980	1.519332	0.354903	-0.834980	1.251215	0.288357	-0.700293	1.161842	0.177436	-0.531951	1.072470	2.218075	-3.884784	7.953006	0.000000	0.000000	28.299285	-7.539997	-15.509663	-4.103672	-12.310189	16.392395	44.362520	86.763757	-12.041591	2.480781	16.775512	-11.108647	98.540692	19.771097	43.132948	-7.711859	-0.684424
3.243902	-3.081083	-4.458448	100.475884	0.416364	0.772733	1.051159	4.857226	-5.104420	-22.079783	11.464697	0.200097	22.195694	15.096015	0.000000	4.603678	2.466771	-7.969353	7.481515	0.130577	22.416792	16.291722	0.000000	0.295884	-0.310707	1.337888	0.549485	-0.413241	1.421506	0.486107	-0.755453	1.421506	0.338165	-0.755453	1.170652	0.274757	-0.633594	1.087034	0.169068	-0.481285	1.003416	2.113467	-3.514782	7.440930	0.000000	0.000000	28.186023	-7.005933	-16.314646	-2.956138	-12.207608	17.219414	45.689728	86.721325	-11.993440	3.706487	17.597331	-10.325391	94.215065	20.931847	47.516163	-8.179821	-0.228107
3.268293	-2.844364	-4.297888	101.059678	0.415238	0.773387	1.051649	4.850362	-4.943489	-22.595602	11.767824	0.205387	21.985212	14.544000	0.000000	4.469507	2.241141	-7.194797	7.453685	0.130091	22.123425	16.117156	0.000000	0.279403	-0.273836	1.215391	0.518880	-0.364201	1.291353	0.459032	-0.665804	1.291353	0.319330	-0.665804	1.063467	0.259454	-0.558405	0.987505	0.159651	-0.424171	0.911543	1.995751	-3.097682	6.759639	0.000000	0.000000	28.130928	-6.515568	-16.847901	-1.883872	-12.030993	18.126987	47.029964	86.538492	-11.480955	4.993524	18.232086	-9.439376	90.217901	22.252963	51.316690	-8.194817	0.550624
3.292683	-2.577385	-4.137422	101.669939	0.414231	0.773936	1.052157	4.810080	-4.739659	-23.110820	12.034484	0.210041	21.766921	13.941655	0.000000	4.361112	1.975866	-6.386644	7.460748	0.130215	21.882954	15.925605	0.000000	0.262667	-0.235297	1.094023	0.487799	-0.312945	1.162400	0.431536	-0.572101	1.162400	0.300202	-0.572101	0.957270	0.243913	-0.479818	0.888894	0.150088	-0.364475	0.820517	1.876205	-2.661728	6.084629	0.000000	0.000000	28.095906	-6.166579	-17.320169	-0.974102	-11.876795	19.124166	48.413288	86.294655	-10.404419	6.368986	18.850860	-8.529308	86.959686	23.837128	54.067310	-7.677762	1.660562
3.317073	-2.291738	-3.970647	102.316352	0.413322	0.774369	1.052633	4.712849	-4.501363	-23.660668	12.238491	0.213602	21.572355	13.378400	0.000000	4.271925	1.682135	-5.551460	7.501860	0.130932	21.704288	15.753198	0.000000	0.247935	-0.196057	0.953802	0.460440	-0.260756	1.013415	0.407332	-0.476693	1.013415	0.283365	-0.476693	0.834577	0.230232	-0.399799	0.774964	0.141670	-0.303692	0.715352	1.770975	-2.217834	5.304762	0.000000	0.000000	28.076659	-5.825781	-17.528671	-0.085224	-11.767819	20.575399	49.788643	86.026573	-8.811783	7.748981	19.306335	-7.818540	82.818511	26.150555	57.319364	-6.969737	3.196762
3.341463	-2.020475	-3.784790	102.961476	0.412573	0.774694	1.053049	4.533859	-4.248505	-24.179992	12.356112	0.215655	21.421051	12.856639	0.000000	4.182510	1.386485	-4.727527	7.580804	0.132310	21.582966	15.603400	0.000000	0.233856	-0.161162	0.812402	0.434293	-0.214345	0.863177	0.384201	-0.391849	0.863177	0.267274	-0.391849	0.710852	0.217158	-0.328641	0.660077	0.133625	-0.249640	0.609302	1.670407	-1.823096	4.518337	0.000000	0.000000	28.057831	-5.541725	-17.626379	0.794067	-11.735733	22.552532	51.147035	85.731082	-6.846950	9.040339	19.675115	-7.350690	79.159021	29.015679	59.970499	-5.923277	5.125054
3.365854	-1.763413	-3.579200	103.608734	0.411929	0.774905	1.053361	4.265103	-3.980055	-24.700784	12.375414	0.215992	21.333094	12.454396	0.000000	4.092707	1.090659	-3.924830	7.700899	0.134406	21.517080	15.490024	0.000000	0.221954	-0.130235	0.666228	0.412191	-0.173213	0.707867	0.364648	-0.316654	0.707867	0.253671	-0.316654	0.582950	0.206106	-0.265576	0.541310	0.126824	-0.201735	0.499671	1.585394	-1.473248	3.705361	0.000000	0.000000	28.033867	-5.287191	-17.600669	1.654639	-11.787870	24.996466	52.477971	85.460209	-4.532288	10.220777	19.855536	-7.129570	75.962409	32.368832	62.295141	-4.356380	7.264587
3.390244	-1.522358	-3.356676	104.231642	0.411388	0.775012	1.053544	3.914771	-3.695920	-25.199015	12.298943	0.214657	21.310946	12.178734	0.000000	4.003615	0.797047	-3.178335	7.864322	0.137258	21.498873	15.408521	0.000000	0.212134	-0.102994	0.519115	0.393955	-0.136982	0.551560	0.348516	-0.250420	0.551560	0.242448	-0.250420	0.454226	0.196988	-0.210025	0.421781	0.121214	-0.159538	0.389336	1.515255	-1.165089	2.887163	0.000000	0.000000	28.000422	-5.067495	-17.487461	2.498875	-11.936491	27.834879	53.783554	85.272183	-1.985064	11.315677	19.797320	-7.136349	73.355450	36.078877	64.163469	-2.410409	9.405183
